REM MD5 bb34f12369cd099f31b84cb1974690a6
FILE "Lost World, The - Jurassic Park (Europe) (En,Fr,De,Es,It,Nl,Sv).bin" BINARY
  TRACK 01 MODE2/2352
    INDEX 01 00:00:00
  TRACK 02 AUDIO
    INDEX 00 25:35:03
    INDEX 01 25:37:03
  TRACK 03 AUDIO
    INDEX 00 68:44:69
    INDEX 01 68:46:69
REM LEADOUT 69:46:69
